/* XPM */
static char *dummy[]={
"32 32 3 1",
". c #000000",
"a c #009999",
"# c #3366cc",
"................................",
"..############################..",
".##############################.",
".###........................###.",
".##..........................##.",
".##..######################..##.",
".##..##a..aaaa..aa....aaa##..##.",
".##..##.a.aaa.aa.aaaa.aaa##..##.",
".##..##aa.aaaaa.aa....aaa##..##.",
".##..##aa.aaaa.aaaaaa.aaa##..##.",
".##..##.....a....a....aaa##..##.",
".##..######################..##.",
".##..######################..##.",
".##..........................##.",
".##..........................##.",
".##....##....##....##...##...##.",
".##...####..####..####.####..##.",
".##...####..####..####.####..##.",
".##...####..####..####.####..##.",
".##....##....##....##...##...##.",
".##..........................##.",
".##..........................##.",
".##....##....##....##...##...##.",
".##...####..####..####.####..##.",
".##...####..####..####.####..##.",
".##...####..####..####.####..##.",
".##....##....##....##...##...##.",
".##..........................##.",
".###........................###.",
".##############################.",
"..############################..",
"................................"};
